# xmcd
#
# Track frame offsets:
#	150
#	15125
#	28957
#	39475
#	51395
#	65312
#	78877
#	91762
#	103710
#	115457
#	127645
#	139942
#	155252
#	174090
#	185902
#	203250
#
# Disc length: 3015
#
# Revision: 2
# Processed by: cddbd v1.5.1PL0 Copyright (c) Steve Scherf et al.
# Submitted via: EasyCDDAExtractor 5.0.2.1
# Normalized: r1:DSETVAR1
#
DISCID=c10bc510
DTITLE=Various Artist - Try A Little Tenderness
DYEAR=1993
DGENRE=Soul
TTITLE0=Otis Redding - Try a little tenderness
TTITLE1=Eddy Floyd - Knock on wood
TTITLE2=Arthur Conley - Sweet soul music
TTITLE3=Wilson Pickett - The midnight hour
TTITLE4=Carla Thomas - I'll bring it home to you
TTITLE5=Ben E. King - Stand by me
TTITLE6=Percy Sledge - When a man loves a woman
TTITLE7=Rufus and Carla - The night time is the right time
TTITLE8=Sam and Dave - Hold on, I'm coming
TTITLE9=Otis Redding - (Sittin' on) The dock of the bay
TTITLE10=Aretha Franklin - I never loved a man...
TTITLE11=The Persuaders - A thin line between love and hate
TTITLE12=The Spinners - Could it be I'm falling in love
TTITLE13=The Drifters - Up on the roof
TTITLE14=Brook Benton - A rainy night in Georgia
TTITLE15=Otis Redding - Try a little tenderness (Live)
EXTD=
EXTT0=
EXTT1=
EXTT2=
EXTT3=
EXTT4=
EXTT5=
EXTT6=
EXTT7=
EXTT8=
EXTT9=
EXTT10=
EXTT11=
EXTT12=
EXTT13=
EXTT14=
EXTT15=
PLAYORDER=
